HIERARCHY
ROOT Hips
{
	OFFSET 0.000000 0.000000 0.000000
	CHANNELS 6 Xposition Yposition Zposition Xrotation Yrotation Zrotation
	JOINT LeftUpLeg_virtual
	{
		OFFSET 0.000000 0.000000 0.000000
		CHANNELS 3 Xrotation Yrotation Zrotation
		JOINT LeftUpLeg
		{
			OFFSET 13.026900 -6.336304 -1.092800
			CHANNELS 3 Xrotation Yrotation Zrotation
			JOINT LeftLeg
			{
				OFFSET 0.524474 -46.096886 9.782700
				CHANNELS 3 Xrotation Yrotation Zrotation
				JOINT LeftFoot
				{
					OFFSET -0.524474 -53.427422 -12.948200
					CHANNELS 3 Xrotation Yrotation Zrotation
					JOINT LeftToeBase
					{
						OFFSET 0.192200 -14.009700 16.364100
						CHANNELS 3 Xrotation Yrotation Zrotation
						JOINT LeftToe_End
						{
							OFFSET -1.784700 -0.561700 9.474800
							CHANNELS 3 Xrotation Yrotation Zrotation
							End Site
							{
								OFFSET 0 0 0
							}
						}
					}
				}
			}
		}
	}
	JOINT RightUpLeg_virtual
	{
		OFFSET 0.000000 0.000000 0.000000
		CHANNELS 3 Xrotation Yrotation Zrotation
		JOINT RightUpLeg
		{
			OFFSET -12.883000 -6.336304 -1.092800
			CHANNELS 3 Xrotation Yrotation Zrotation
			JOINT RightLeg
			{
				OFFSET -0.524587 -46.096825 9.782800
				CHANNELS 3 Xrotation Yrotation Zrotation
				JOINT RightFoot
				{
					OFFSET 0.524587 -53.427383 -12.948300
					CHANNELS 3 Xrotation Yrotation Zrotation
					JOINT RightToeBase
					{
						OFFSET -0.192200 -14.009700 16.364100
						CHANNELS 3 Xrotation Yrotation Zrotation
						JOINT RightToe_End
						{
							OFFSET 1.784700 -0.561700 9.474800
							CHANNELS 3 Xrotation Yrotation Zrotation
							End Site
							{
								OFFSET 0 0 0
							}
						}
					}
				}
			}
		}
	}
	JOINT Spine_virtual
	{
		OFFSET 0.000000 0.000000 0.000000
		CHANNELS 3 Xrotation Yrotation Zrotation
		JOINT Spine
		{
			OFFSET 0.072000 7.257294 -0.789700
			CHANNELS 3 Xrotation Yrotation Zrotation
			JOINT Spine1
			{
				OFFSET 0.000000 12.508769 -0.658067
				CHANNELS 3 Xrotation Yrotation Zrotation
				JOINT Spine1_split
				{
					OFFSET 0.000000 12.508769 -0.658067
					CHANNELS 3 Xrotation Yrotation Zrotation
					JOINT Spine2
					{
						OFFSET 0.000000 12.508769 -0.658067
						CHANNELS 3 Xrotation Yrotation Zrotation
						JOINT Neck_virtual
						{
							OFFSET 0.000000 0.000000 0.000000
							CHANNELS 3 Xrotation Yrotation Zrotation
							JOINT Neck
							{
								OFFSET 0.000000 14.033295 7.520400
								CHANNELS 3 Xrotation Yrotation Zrotation
								JOINT Head
								{
									OFFSET 0.000000 8.198502 5.703100
									CHANNELS 3 Xrotation Yrotation Zrotation
									JOINT HeadTop_End
									{
										OFFSET 0.000000 17.760803 13.332701
										CHANNELS 3 Xrotation Yrotation Zrotation
										End Site
										{
											OFFSET 0 0 0
										}
									}
								}
							}
						}
						JOINT LeftShoulder_virtual
						{
							OFFSET 0.000000 0.000000 0.000000
							CHANNELS 3 Xrotation Yrotation Zrotation
							JOINT LeftShoulder
							{
								OFFSET 6.292450 5.785301 -0.669000
								CHANNELS 3 Xrotation Yrotation Zrotation
								JOINT LeftShoulder_split
								{
									OFFSET 6.292450 5.785301 -0.669000
									CHANNELS 3 Xrotation Yrotation Zrotation
									JOINT LeftArm
									{
										OFFSET 13.907140 -6.093903 1.965100
										CHANNELS 3 Xrotation Yrotation Zrotation
										JOINT LeftForeArm
										{
											OFFSET 34.140198 0.000000 0.000000
											CHANNELS 3 Xrotation Yrotation Zrotation
											JOINT LeftHand
											{
												OFFSET 40.960209 0.000000 0.000000
												CHANNELS 3 Xrotation Yrotation Zrotation
												End Site
												{
													OFFSET 0 0 0
												}
											}
										}
									}
								}
							}
						}
						JOINT RightShoulder_virtual
						{
							OFFSET 0.000000 0.000000 0.000000
							CHANNELS 3 Xrotation Yrotation Zrotation
							JOINT RightShoulder
							{
								OFFSET -6.292450 5.785301 -0.669000
								CHANNELS 3 Xrotation Yrotation Zrotation
								JOINT RightShoulder_split
								{
									OFFSET -6.292450 5.785301 -0.669000
									CHANNELS 3 Xrotation Yrotation Zrotation
									JOINT RightArm
									{
										OFFSET -13.907140 -6.093903 1.965100
										CHANNELS 3 Xrotation Yrotation Zrotation
										JOINT RightForeArm
										{
											OFFSET -34.140198 0.000000 0.000000
											CHANNELS 3 Xrotation Yrotation Zrotation
											JOINT RightHand
											{
												OFFSET -40.960209 0.000000 0.000000
												CHANNELS 3 Xrotation Yrotation Zrotation
												End Site
												{
													OFFSET 0 0 0
												}
											}
										}
									}
								}
							}
						}
					}
				}
			}
		}
	}
}
MOTION
Frames: 5
Frame Time: 0.03333333
-1.550481 78.116791 10.849297 0.000000 0.000000 0.000000 32.358253 -55.108811 28.978631 -75.223803 -5.903636 23.166477 80.475994 -6.644660 -0.244604 -13.898019 0.626345 -14.607275 -3.034551 -0.586088 0.696446 0.000000 0.000000 0.000000 33.990211 -57.946253 31.603760 -71.080679 -0.387464 -32.692547 80.708766 5.626655 1.054499 -21.511618 -1.752262 13.329738 1.409009 1.288741 0.399556 0.000000 0.000000 0.000000 36.501275 -54.693409 30.750096 8.399446 -1.422866 -2.094393 4.106789 -3.028915 -2.732564 1.057103 0.384254 0.651779 0.000000 0.000000 0.000000 3.298034 -3.502591 -2.110435 -3.981428 14.643529 -7.258593 -34.224183 34.907157 4.444035 0.000000 0.000000 0.000000 3.450997 -3.507231 -2.468719 4.788747 -9.343131 -6.291128 -4.054742 -3.086568 0.802230 -59.361379 2.613417 -22.884742 20.233237 -22.499763 16.906663 0.000000 0.000000 0.000000 3.619830 -3.219065 -2.216209 5.904239 7.520612 13.406510 3.638372 4.292541 -0.446139 -9.851318 -2.880326 53.650006 -17.142593 40.759810 8.765410 0.000000 0.000000 0.000000 
-0.966022 74.503235 9.650009 0.000000 0.000000 0.000000 33.686595 -54.318131 29.750129 -80.181052 -9.331911 23.206884 85.105093 -7.148059 -0.582721 -13.335519 0.589166 -15.814601 -3.430982 -0.550810 0.476796 0.000000 0.000000 0.000000 35.530470 -57.056825 32.495752 -76.284873 1.455159 -33.169738 85.346035 6.365581 0.963432 -21.031168 -1.022844 12.815861 1.453438 1.318398 0.475426 0.000000 0.000000 0.000000 37.893958 -54.101058 31.578949 7.829924 -1.371837 -1.873912 4.365015 -2.844099 -2.673621 1.169162 0.177394 0.686207 0.000000 0.000000 0.000000 3.585946 -3.328435 -2.053151 -2.730817 15.310994 -8.382953 -34.656810 33.788625 3.775684 0.000000 0.000000 0.000000 3.691924 -3.334030 -2.466256 5.123766 -9.606501 -6.259569 -3.743244 -3.002195 1.111030 -60.771308 1.282214 -23.057038 21.205721 -22.002741 16.831208 0.000000 0.000000 0.000000 3.880196 -3.013778 -2.145165 6.313424 7.748354 13.653973 3.822214 4.378955 -0.595771 -9.650040 -1.175541 51.878804 -17.844952 42.348966 9.455830 0.000000 0.000000 0.000000 
-0.402691 70.981552 8.433002 0.000000 0.000000 0.000000 34.488688 -53.648336 29.949932 -84.657872 -12.585110 23.284304 89.330610 -7.873114 -0.781644 -12.672575 0.327465 -17.035144 -3.964609 -0.488843 0.276462 0.000000 0.000000 0.000000 36.636349 -56.384967 32.877409 -81.356924 3.259018 -33.325811 89.772468 6.723506 1.214640 -20.049359 -0.756085 11.935155 1.408213 1.278965 0.544258 0.000000 0.000000 0.000000 38.922984 -53.690744 32.047060 7.303527 -1.258099 -1.647107 4.607841 -2.608760 -2.606671 1.157373 -0.059653 0.782026 0.000000 0.000000 0.000000 3.886200 -3.094423 -1.997653 -1.299421 15.939966 -9.487446 -34.568540 32.856782 2.963179 0.000000 0.000000 0.000000 3.953335 -3.108683 -2.459469 5.486485 -9.638077 -6.254522 -3.447540 -2.892641 1.289600 -61.941742 0.161964 -23.431008 22.258133 -21.493214 16.619061 0.000000 0.000000 0.000000 4.142544 -2.765281 -2.086952 6.745717 7.919714 13.926518 4.047062 4.397072 -0.682452 -9.144190 0.343308 49.875677 -18.231943 43.330375 9.998745 0.000000 0.000000 0.000000 
0.134837 67.717773 7.211273 0.000000 0.000000 0.000000 34.869857 -53.059553 29.723392 -88.624662 -15.636393 23.395894 93.050973 -8.785117 -0.806979 -11.831529 -0.184290 -18.285337 -4.465012 -0.412609 0.108626 0.000000 0.000000 0.000000 37.343322 -55.975186 32.916092 -86.217983 4.986900 -33.305539 94.010478 6.878660 1.671977 -18.414183 -0.861371 10.981011 0.957176 1.189415 0.579673 0.000000 0.000000 0.000000 39.755738 -53.428236 32.315005 6.812643 -1.089353 -1.439486 4.834236 -2.367364 -2.562970 0.963531 -0.393981 0.889781 0.000000 0.000000 0.000000 4.171042 -2.836527 -1.967302 0.279229 16.556817 -10.543162 -34.129742 32.037887 2.145794 0.000000 0.000000 0.000000 4.222591 -2.867860 -2.466570 5.879349 -9.424298 -6.261217 -3.150231 -2.803550 1.278110 -62.864371 -0.768218 -23.912875 23.411699 -20.937829 16.316741 0.000000 0.000000 0.000000 4.392285 -2.518393 -2.064781 7.196578 8.076027 14.333635 4.344148 4.378118 -0.682194 -8.494024 1.465663 47.787456 -18.240234 43.880929 10.356048 0.000000 0.000000 0.000000 
0.574444 64.816650 6.058487 0.000000 0.000000 0.000000 34.946099 -52.461061 29.210195 -92.080813 -18.479620 23.469087 96.160184 -9.785467 -0.698623 -10.778954 -0.908290 -19.441642 -4.791680 -0.348224 -0.044320 0.000000 0.000000 0.000000 37.724842 -55.674935 32.720506 -90.727445 6.671649 -33.141813 97.785933 7.034690 2.053067 -16.223060 -1.173401 10.336025 -0.034826 1.087569 0.544297 0.000000 0.000000 0.000000 40.413529 -53.247629 32.412830 6.340522 -0.891013 -1.267343 5.050844 -2.156043 -2.549332 0.804113 -0.778245 0.999120 0.000000 0.000000 0.000000 4.426687 -2.598460 -1.965446 1.934152 17.173317 -11.544993 -33.557703 31.269562 1.451242 0.000000 0.000000 0.000000 4.496630 -2.645264 -2.481809 6.311878 -9.015992 -6.282073 -2.837660 -2.789698 1.046695 -63.513690 -1.570655 -24.453839 24.721124 -20.483990 16.051581 0.000000 0.000000 0.000000 4.641480 -2.311954 -2.092635 7.657384 8.279509 14.947331 4.679806 4.377450 -0.654454 -7.866903 2.147519 45.619704 -17.860040 44.203499 10.526005 0.000000 0.000000 0.000000 
